<svg width="500" height="500" viewBox="0 0 500 500" fill="none" xmlns="http://www.w3.org/2000/svg">
<path d="M442.64 0H57.36C25.6809 0 0 25.6809 0 57.36V442.64C0 474.319 25.6809 500 57.36 500H442.64C474.319 500 500 474.319 500 442.64V57.36C500 25.6809 474.319 0 442.64 0Z" fill="#43BC95"/>
<path d="M443.56 172.15V203.87C443.56 206.49 440.26 207.63 438.64 205.58L396.87 160.27C389.78 151.28 378.97 146.04 367.52 146.04H214.51C189.14 146.04 168.57 166.61 168.57 191.98V442.54H92.54C74.29 442.54 59.5 427.75 59.5 409.5V139.76C59.5 94.86 95.89 58.47 140.79 58.47H329.88C343.07 58.47 355.74 60.71 367.52 64.85C383.77 70.54 398.34 79.84 410.27 91.76C414.16 95.65 417.76 99.81 421.05 104.22C435.19 123.17 443.56 146.68 443.56 172.14V172.15Z" fill="#231F20"/>
<path d="M258.7 311.41C294.814 311.41 324.09 282.134 324.09 246.02C324.09 209.906 294.814 180.63 258.7 180.63C222.586 180.63 193.31 209.906 193.31 246.02C193.31 282.134 222.586 311.41 258.7 311.41Z" fill="#231F20"/>
<path d="M469.13 344.76L408.85 329.18C398.93 326.62 388.37 330.47 382.68 338.98C361.15 371.14 324.49 392.31 282.88 392.31C255.73 392.31 230.69 383.3 210.59 368.1C202.25 361.79 209.38 348.75 219.17 352.43C232.3 357.37 246.53 360.06 261.39 360.06C299.21 360.06 332.94 342.58 354.94 315.24C363.06 305.13 369.6 293.67 374.14 281.26C378.84 268.41 381.4 254.52 381.4 240.04C381.4 239.86 381.4 239.69 381.4 239.51C381.36 229.99 394.79 227.79 397.59 236.89C398.14 238.68 398.65 240.49 399.12 242.31C402.35 254.89 408.55 266.51 416.84 276.49L471.04 341.72C472.21 343.13 470.89 345.21 469.12 344.75L469.13 344.76Z" fill="#231F20"/>
<path d="M292.73 256.77C303.119 256.77 311.54 248.348 311.54 237.96C311.54 227.571 303.119 219.15 292.73 219.15C282.342 219.15 273.92 227.571 273.92 237.96C273.92 248.348 282.342 256.77 292.73 256.77Z" fill="white"/>
</svg>
